<?xml version="1.0" encoding="UTF-8" standalone="no"?>
<!-- Created with Inkscape (http://www.inkscape.org/) -->

<svg
   xmlns:osb="http://www.openswatchbook.org/uri/2009/osb"
   xmlns:dc="http://purl.org/dc/elements/1.1/"
   xmlns:cc="http://creativecommons.org/ns#"
   xmlns:rdf="http://www.w3.org/1999/02/22-rdf-syntax-ns#"
   xmlns:svg="http://www.w3.org/2000/svg"
   xmlns="http://www.w3.org/2000/svg"
   xmlns:sodipodi="http://sodipodi.sourceforge.net/DTD/sodipodi-0.dtd"
   xmlns:inkscape="http://www.inkscape.org/namespaces/inkscape"
   width="800"
   height="800"
   viewBox="0 0 211.66666 211.66667"
   version="1.1"
   id="svg8"
   inkscape:version="0.92.4 (5da689c313, 2019-01-14)"
   sodipodi:docname="logo.svg">
  <defs
     id="defs2">
    <linearGradient
       id="linearGradient2372"
       osb:paint="solid">
      <stop
         style="stop-color:#00aad4;stop-opacity:1;"
         offset="0"
         id="stop2370" />
    </linearGradient>
  </defs>
  <sodipodi:namedview
     id="base"
     pagecolor="#ffffff"
     bordercolor="#666666"
     borderopacity="1.0"
     inkscape:pageopacity="0.0"
     inkscape:pageshadow="2"
     inkscape:zoom="0.49497475"
     inkscape:cx="72.131159"
     inkscape:cy="491.01824"
     inkscape:document-units="mm"
     inkscape:current-layer="layer1"
     showgrid="false"
     units="px"
     inkscape:window-width="1920"
     inkscape:window-height="1019"
     inkscape:window-x="0"
     inkscape:window-y="0"
     inkscape:window-maximized="1" />
  <metadata
     id="metadata5">
    <rdf:RDF>
      <cc:Work
         rdf:about="">
        <dc:format>image/svg+xml</dc:format>
        <dc:type
           rdf:resource="http://purl.org/dc/dcmitype/StillImage" />
        <dc:title></dc:title>
      </cc:Work>
    </rdf:RDF>
  </metadata>
  <g
     inkscape:label="Layer 1"
     inkscape:groupmode="layer"
     id="layer1"
     transform="translate(0,-85.333313)">
    <g
       id="g2610"
       transform="translate(0.98755155,-25.801123)">
      <g
         inkscape:export-ydpi="96.8246"
         inkscape:export-xdpi="96.8246"
         style="fill:#87de87;fill-rule:evenodd;stroke:#217844;stroke-width:0.80480361;stroke-miterlimit:4;stroke-dasharray:none;stroke-opacity:1"
         transform="matrix(7.4552348,0,0,7.4552348,-16.895604,93.956395)"
         id="Page-1">
        <g
           style="fill:#87de87;stroke:#217844;stroke-width:0.80480361;stroke-miterlimit:4;stroke-dasharray:none;stroke-opacity:1"
           id="icon-132-cloud">
          <path
             style="fill:#87de87;stroke:#217844;stroke-width:0.80480361;stroke-miterlimit:4;stroke-dasharray:none;stroke-opacity:1"
             inkscape:connector-curvature="0"
             d="M 26.882863,15.36551 C 28.713291,16.108508 30,17.903581 30,20 c 0,2.755805 -2.238325,5 -4.99944,5 H 7.9994399 C 5.2324942,25 3,22.761424 3,20 3,17.949131 4.2396588,16.181608 6.0118966,15.411539 v 0 C 6.0040021,15.275367 6,15.138151 6,15 6,11.134007 9.1340066,8 13,8 15.612757,8 17.891182,9.4314488 19.093808,11.552882 19.820616,11.198716 20.637102,11 21.5,11 c 2.648655,0 4.860022,1.872249 5.382863,4.36551 z"
             id="cloud" />
        </g>
      </g>
      <g
         inkscape:export-ydpi="96.8246"
         inkscape:export-xdpi="96.8246"
         style="fill:#ffffff;fill-opacity:1;stroke:#ffffff;stroke-width:0.33918798;stroke-miterlimit:4;stroke-dasharray:none;stroke-opacity:1"
         transform="matrix(3.9623782,0,0,3.9623782,86.542126,182.92483)"
         id="g910">
        <path
           style="fill:#ffffff;fill-opacity:1;stroke:#ffffff;stroke-width:0.33918798;stroke-miterlimit:4;stroke-dasharray:none;stroke-opacity:1"
           inkscape:connector-curvature="0"
           d="M 22.279,9.118 20.626,8.927 C 20.506,8.572 20.47,8.22 20.298,7.872 L 21.542,6.413 C 22.143,5.676 22.116,4.614 21.444,3.942 L 20.42,2.904 C 19.748,2.231 18.692,2.177 17.956,2.779 L 16.5,3.968 C 16.165,3.802 15.814,3.656 15.447,3.531 L 15.257,1.908 C 15.16,0.963 14.372,0.5 13.422,0.5 h -1.468 c -0.95,0 -1.74,0.463 -1.836,1.409 L 9.927,3.656 C 9.572,3.775 9.22,3.859 8.872,4.031 L 7.413,2.81 C 6.677,2.209 5.614,2.247 4.942,2.92 L 3.904,3.95 C 3.232,4.622 3.178,5.68 3.779,6.417 L 4.968,7.874 C 4.801,8.209 4.655,8.561 4.531,8.928 L 2.408,9.118 C 1.463,9.214 0.5,10.003 0.5,10.953 v 1.468 c 0,0.95 0.963,1.74 1.909,1.836 l 1.997,0.191 c 0.12,0.355 0.328,0.707 0.5,1.055 l -1.158,1.459 c -0.601,0.737 -0.531,1.799 0.141,2.471 l 1.046,1.038 c 0.672,0.672 1.738,0.726 2.475,0.125 l 1.46,-1.189 c 0.335,0.166 0.689,0.312 1.056,0.437 l 0.191,1.935 c 0.096,0.945 0.886,1.721 1.836,1.721 h 1.468 c 0.95,0 1.74,-0.776 1.836,-1.721 l 0.191,-1.903 c 0.355,-0.12 0.707,-0.281 1.055,-0.453 l 1.459,1.181 c 0.736,0.6 1.799,0.544 2.471,-0.129 l 1.038,-1.04 c 0.672,-0.672 0.726,-1.735 0.125,-2.472 l -1.189,-1.459 c 0.166,-0.335 0.312,-0.688 0.437,-1.055 l 1.435,-0.191 C 23.224,14.162 23.5,13.372 23.5,12.422 v -1.468 c 0,-0.951 -0.276,-1.74 -1.221,-1.836 z m 0.221,3.304 c 0,0.317 0.085,0.58 -0.23,0.612 l -2.116,0.232 c -0.19,0.019 -0.279,0.127 -0.38,0.289 -0.035,0.056 -0.019,0.116 -0.034,0.179 -0.162,0.554 -0.357,1.072 -0.622,1.541 -0.125,0.22 -0.091,0.495 0.069,0.691 l 1.452,1.775 c 0.2,0.246 0.185,0.6 -0.039,0.824 l -1.037,1.038 c -0.224,0.224 -0.578,0.242 -0.823,0.042 l -1.774,-1.447 c -0.153,-0.126 -0.358,-0.167 -0.549,-0.116 -0.057,0.015 -0.111,0.039 -0.161,0.069 -0.506,0.277 -1.024,0.49 -1.542,0.634 -0.244,0.068 -0.421,0.278 -0.447,0.53 l -0.232,2.455 c -0.032,0.315 -0.295,0.731 -0.612,0.731 h -1.468 c -0.317,0 -0.58,-0.415 -0.612,-0.73 L 11.111,19.405 C 11.092,19.215 10.984,19.001 10.822,18.9 10.766,18.865 10.706,18.818 10.643,18.803 10.089,18.641 9.571,18.414 9.102,18.15 8.882,18.025 8.607,18.043 8.411,18.203 L 6.636,19.647 C 6.39,19.848 6.036,19.828 5.812,19.604 L 4.774,18.565 C 4.55,18.341 4.532,17.986 4.732,17.741 L 6.179,15.966 C 6.304,15.813 6.347,15.608 6.295,15.416 6.28,15.359 6.256,15.305 6.226,15.255 5.949,14.749 5.736,14.231 5.592,13.713 5.524,13.469 5.314,13.292 5.062,13.266 L 2.42,13.034 C 2.103,13.002 1.5,12.738 1.5,12.422 v -1.468 c 0,-0.317 0.603,-0.58 0.918,-0.612 L 4.878,10.11 C 5.068,10.091 5.329,9.984 5.43,9.823 5.468,9.762 5.54,9.697 5.554,9.628 5.715,9.08 5.953,8.567 6.215,8.102 6.34,7.882 6.328,7.607 6.168,7.411 L 4.727,5.636 C 4.527,5.39 4.548,5.036 4.772,4.812 L 5.811,3.774 C 6.035,3.55 6.389,3.532 6.635,3.732 L 8.41,5.179 C 8.564,5.305 8.769,5.347 8.96,5.295 9.017,5.28 9.071,5.256 9.121,5.226 9.627,4.949 10.145,4.736 10.663,4.592 10.907,4.524 11.084,4.314 11.11,4.062 L 11.342,1.92 C 11.373,1.603 11.637,1.5 11.953,1.5 h 1.468 c 0.317,0 0.58,0.103 0.612,0.418 l 0.232,2.21 c 0.019,0.19 0.127,0.326 0.289,0.426 0.056,0.035 0.116,0.043 0.179,0.058 0.554,0.162 1.072,0.369 1.541,0.634 0.22,0.125 0.494,0.097 0.691,-0.063 L 18.74,3.734 c 0.246,-0.2 0.6,-0.183 0.824,0.041 l 1.038,1.038 c 0.224,0.224 0.242,0.578 0.042,0.824 l -1.447,1.774 c -0.125,0.153 -0.168,0.358 -0.116,0.55 0.015,0.057 0.039,0.111 0.069,0.161 0.277,0.506 0.49,1.024 0.634,1.542 0.068,0.244 0.278,0.421 0.53,0.447 l 1.955,0.232 c 0.315,0.032 0.231,0.295 0.231,0.612 z"
           id="path897" />
        <path
           style="fill:#ffffff;fill-opacity:1;stroke:#ffffff;stroke-width:0.33918798;stroke-miterlimit:4;stroke-dasharray:none;stroke-opacity:1"
           inkscape:connector-curvature="0"
           d="m 12.688,7.382 c -2.374,0 -4.306,1.932 -4.306,4.306 0,2.374 1.932,4.306 4.306,4.306 2.374,0 4.306,-1.932 4.306,-4.306 0,-2.374 -1.932,-4.306 -4.306,-4.306 z m 0,7.381 c -1.696,0 -3.076,-1.38 -3.076,-3.076 0,-1.696 1.38,-3.076 3.076,-3.076 1.696,0 3.076,1.38 3.076,3.076 0,1.696 -1.381,3.076 -3.076,3.076 z"
           id="path899" />
      </g>
      <rect
         inkscape:export-ydpi="96.8246"
         inkscape:export-xdpi="96.8246"
         y="213.03094"
         x="9.173007"
         height="5.0289102"
         width="34.483948"
         id="rect2434"
         style="fill:#ffffff;fill-opacity:1;stroke:none;stroke-width:1.53752291;stroke-miterlimit:4;stroke-dasharray:none;stroke-dashoffset:0;stroke-opacity:1" />
      <circle
         inkscape:export-ydpi="96.8246"
         inkscape:export-xdpi="96.8246"
         r="8.2617826"
         cy="215.54541"
         cx="46.243721"
         id="path2436"
         style="fill:#ffffff;fill-opacity:1;stroke:none;stroke-width:1.35960388;stroke-miterlimit:4;stroke-dasharray:none;stroke-dashoffset:0;stroke-opacity:1" />
      <rect
         inkscape:export-ydpi="96.8246"
         inkscape:export-xdpi="96.8246"
         y="237.80544"
         x="-0.06987638"
         height="5.0289102"
         width="63.066242"
         id="rect2434-6"
         style="fill:#ffffff;fill-opacity:1;stroke:none;stroke-width:2.07927299;stroke-miterlimit:4;stroke-dasharray:none;stroke-dashoffset:0;stroke-opacity:1" />
      <circle
         inkscape:export-ydpi="96.8246"
         inkscape:export-xdpi="96.8246"
         r="8.2617826"
         cy="240.3199"
         cx="65.583122"
         id="path2436-7"
         style="fill:#ffffff;fill-opacity:1;stroke:none;stroke-width:1.35960388;stroke-miterlimit:4;stroke-dasharray:none;stroke-dashoffset:0;stroke-opacity:1" />
      <rect
         inkscape:export-ydpi="96.8246"
         inkscape:export-xdpi="96.8246"
         y="262.5799"
         x="7.7204947"
         height="5.0289102"
         width="72.503418"
         id="rect2434-6-3"
         style="fill:#ffffff;fill-opacity:1;stroke:none;stroke-width:2.22942233;stroke-miterlimit:4;stroke-dasharray:none;stroke-dashoffset:0;stroke-opacity:1" />
      <circle
         inkscape:export-ydpi="96.8246"
         inkscape:export-xdpi="96.8246"
         r="8.2617826"
         cy="265.09436"
         cx="82.810669"
         id="path2436-7-5"
         style="fill:#ffffff;fill-opacity:1;stroke:none;stroke-width:1.35960388;stroke-miterlimit:4;stroke-dasharray:none;stroke-dashoffset:0;stroke-opacity:1" />
    </g>
  </g>
</svg>
